<?xml version="1.0" encoding="UTF-8"?>
<!DOCTYPE svg  PUBLIC '-//W3C//DTD SVG 20010904//EN'  'http://www.w3.org/TR/2001/REC-SVG-20010904/DTD/svg10.dtd'>
<svg width="300pt" height="295pt" version="1.0" viewBox="0 0 300 295" xmlns="http://www.w3.org/2000/svg">
<metadata>Created by potrace 1.10, written by Peter Selinger 2001-2011</metadata>
<g transform="translate(0 295) scale(.1 -.1)">
<path d="m940 2647c-297-194-575-384-584-400-20-32 61-157 102-157 11 0 66 31 123 69 350 233 381 252 394 234 6-10 33-70 60-133 55-130 79-170 102-170 14 0 72 28 83 41 9 10 370 249 400 264l28 14 53-126c30-69 58-136 63-148 5-13 19-29 31-35 28-15 30-14 200 99 71 47 134 88 140 91 5 3 49 31 97 63 47 31 88 57 90 57 3 0 24-46 48-102 79-191 88-207 116-214 14-4 37-1 52 6s42 20 60 29c63 30 62 43-13 216-12 28-50 115-84 195-36 86-70 151-82 158-18 11-29 8-85-25-35-20-64-41-64-45s-5-8-10-8c-6 0-16-5-23-10-37-32-332-220-341-217-6 2-29 48-52 103-87 209-103 230-152 196-15-11-32-21-37-23-6-2-103-66-217-141-114-76-211-138-216-138-11 0-34 46-92 186-35 87-68 135-89 134-3-1-49-29-101-63zm184-125c38-92 72-170 75-174 4-4 125 71 270 167s265 174 266 173c0-2 17-43 37-93 45-110 102-249 104-253 1-2 122 76 268 172 221 146 268 173 273 158 8-22 204-485 209-494 4-6-120-68-136-68-4 0-40 78-80 174l-72 174-149-99c-182-121-379-249-383-249-2 0-36 78-75 174l-73 174-256-172c-142-94-263-172-269-174-7-2-13 3-13 11 0 7-18 56-41 108s-53 124-68 161l-27 67-35-24c-101-70-492-325-497-325-8 1-77 111-77 123 0 7 661 453 675 455 3 1 36-74 74-166z"/>
<path d="m1010 1749c-19-10-102-64-185-119-82-55-196-130-253-168-247-161-247-161-186-249 21-30 44-58 52-61 25-9 60 10 291 163 158 104 229 145 239 139 7-5 38-68 69-139 30-72 62-138 71-147 19-22 55-23 72-3 7 8 17 15 22 15s14 5 21 11c38 33 395 262 410 263 14 1 32-31 78-139 66-154 73-165 100-165 22 0 26 2 293 179 110 72 205 131 211 131 11 0 53-88 106-220 12-30 32-65 45-77 27-25 50-21 129 24 71 39 75 20-64 338-10 22-35 81-57 132-49 115-59 122-121 84s-335-217-348-228c-5-5-33-23-62-40l-51-32-15 32c-8 18-36 83-62 145-26 63-57 122-68 132-18 18-22 18-51 3-17-9-124-78-238-154s-216-143-227-148c-17-10-23-1-66 102-93 223-97 227-155 196zm115-174c37-88 71-164 75-168 4-5 125 70 269 166 256 171 262 174 271 151 16-42 133-319 137-323 1-2 121 75 266 171l264 176 108-257c60-141 107-258 106-261-2-3-34-19-71-36l-67-31-68 166c-37 91-71 170-75 174-4 5-126-70-271-165l-264-174-69 165c-38 91-72 170-76 174-5 5-126-70-269-166l-262-175-14 37c-61 150-131 311-135 311-3 0-123-78-268-173l-262-174-42 65c-39 60-41 66-25 76 10 6 163 108 340 226 177 119 325 213 328 210s36-77 74-165z"/>
<path d="m2009 962c-15-15-36-35-48-44-20-17-21-25-21-298s0-280 21-290c34-19 15-23-88-21s-119 6-90 22c16 9 17 34 17 295 0 244-2 285-15 290-39 15-6 24 90 24 89 0 104 2 99 15-5 12-26 15-99 15-53 0-97-4-100-10-4-6-6-156-6-335s2-329 6-335c3-6 46-10 98-10 81 0 94 2 104 20 9 14 10 27 3 45-6 15-10 138-10 284 0 211 3 261 15 277 13 17 14 15 15-33 0-40 5-58 21-74s23-18 35-8c20 17 162 23 180 8s21-418 3-451c-8-15-8-27 2-44 12-23 18-24 103-24 77 0 94 3 107 19 14 15 14 22 3 42-18 33-19 455-1 462 18 6 159 1 183-8 37-12 54 18 54 94 0 54-4 71-19 85s-24 15-40 6c-23-12-540-10-576 3-14 5-27-1-46-21zm47-7c9-23 569-23 578 0 3 8 10 15 16 15s10-33 10-85c0-86-4-97-24-71-8 11-39 15-115 17l-104 3 2-240c0-131 1-245 1-251 0-7 7-13 16-13s14-5 12-11c-5-15-201-15-206 0-2 6 3 11 12 11 24 0 27 29 24 274l-3 229-105-1c-82-1-107-4-116-16-20-28-24-17-24 69 0 52 4 85 10 85s13-7 16-15z"/>
<path d="m332 949c-10-15-10-29-3-52 13-44 11-522-2-557-8-22-8-32 2-44 12-14 50-16 285-16 208-1 277-4 295-14 41-23 56 3 56 94-1 93-14 116-57 94-22-11-66-14-195-12l-168 3-3 229c-2 169 1 232 10 243 10 12 9 17-5 25-10 5-15 13-12 19 4 5-33 9-92 9-89 0-99-2-111-21zm208-15c0-4-7-12-15-18-12-9-15-55-17-259l-3-247h192c199 0 223 3 223 26 0 8 5 14 10 14 6 0 10-37 10-92 0-91-1-92-18-70-18 23-18 23-297 22h-289c-6 0 0 9 12 20 22 20 22 26 22 295 0 264-1 275-20 287-11 7-20 16-20 20 0 5 47 8 105 8s105-3 105-6z"/>
<path d="m986 951c-14-15-15-24-7-40 7-12 11-96 11-221 0-228 8-272 56-329 50-58 121-83 259-89 210-9 332 51 360 178 4 18 7 121 7 229 0 131 4 206 12 225 10 26 9 33-6 48-14 14-34 18-101 18-78 0-85-2-96-24-10-17-10-29-2-44 12-23 14-359 2-402-9-36-69-62-144-63-71-1-116 17-134 53-17 33-18 392-2 423 9 16 9 22 0 25-6 2-11 10-11 18 0 11-19 14-93 14-80 0-97-3-111-19zm204-20c0-5-7-11-15-15-13-4-15-37-15-208 0-219 4-235 53-272 24-18 43-21 127-21s103 3 127 21c45 33 52 71 52 276 1 180 0 188-21 208l-22 20h102c93 0 126-9 87-24-13-4-15-36-15-199 0-107-5-218-10-247-13-67-46-111-107-141-44-22-61-24-193-24-165 0-215 13-267 68-48 51-53 80-53 319 0 185-2 220-15 224-38 15-6 24 85 24 55 0 100-4 100-9z"/>
</g>
</svg>
